<?xml version="1.0" standalone="no"?><!DOCTYPE svg PUBLIC "-//W3C//DTD SVG 1.1//EN" "http://www.w3.org/Graphics/SVG/1.1/DTD/svg11.dtd"><svg t="1515401386701" class="icon" style="" viewBox="0 0 1024 1024" version="1.1" xmlns="http://www.w3.org/2000/svg" p-id="1869" xmlns:xlink="http://www.w3.org/1999/xlink" width="32" height="32"><defs><style type="text/css"></style></defs><path d="M913.916812 237.046834l-804.387233-0.146333c-0.008186 0-0.01228 0-0.020466 0-25.139563 0-45.536103-1.939165-45.536103 18.717294 0 21.170159 20.366863 18.72855 45.515636 18.733667l804.387233 0.146333c0.008186 0 0.01228 0 0.020466 0 25.137517 0 45.536103 1.01205 45.536103-18.717294C959.433472 236.900501 939.066609 237.051951 913.916812 237.046834L913.916812 237.046834z" p-id="1870" fill="#ffffff"></path><path d="M913.916812 493.301126l-804.387233-0.146333c-0.008186 0-0.01228 0-0.020466 0-25.139563 0-45.536103-1.939165-45.536103 18.717294 0 21.170159 20.366863 18.72855 45.515636 18.733667l804.387233 0.146333c0.008186 0 0.01228 0 0.020466 0 25.137517 0 45.536103 1.011027 45.536103-18.717294C959.433472 493.154793 939.066609 493.305219 913.916812 493.301126L913.916812 493.301126z" p-id="1871" fill="#ffffff"></path><path d="M913.916812 749.127675l-804.387233-0.146333c-0.008186 0-0.01228 0-0.020466 0-25.139563 0-45.536103-1.939165-45.536103 18.717294 0 21.170159 20.366863 18.72855 45.515636 18.733667l804.387233 0.146333c0.008186 0 0.01228 0 0.020466 0 25.137517 0 45.536103 1.01205 45.536103-18.717294C959.433472 748.981343 939.066609 749.131769 913.916812 749.127675L913.916812 749.127675z" p-id="1872" fill="#ffffff"></path></svg>