<?xml version="1.0" standalone="no"?><!DOCTYPE svg PUBLIC "-//W3C//DTD SVG 1.1//EN" "http://www.w3.org/Graphics/SVG/1.1/DTD/svg11.dtd"><svg t="1515479634339" class="icon" style="" viewBox="0 0 1024 1024" version="1.1" xmlns="http://www.w3.org/2000/svg" p-id="27959" xmlns:xlink="http://www.w3.org/1999/xlink" width="32" height="32"><defs><style type="text/css"></style></defs><path d="M124.342857 226.742857c0-14.628571 10.971429-29.257143 29.257143-29.257143h625.371429c14.628571 0 29.257143 10.971429 29.257142 29.257143-3.657143 18.285714-14.628571 29.257143-32.914285 29.257143H149.942857c-14.628571 0-25.6-10.971429-25.6-29.257143zM149.942857 493.714286h384c14.628571 0 29.257143 10.971429 29.257143 29.257143 0 14.628571-10.971429 29.257143-29.257143 29.257142H149.942857c-14.628571 0-29.257143-10.971429-29.257143-29.257142 3.657143-18.285714 14.628571-29.257143 29.257143-29.257143zM149.942857 786.285714h347.428572c14.628571 0 29.257143 10.971429 29.257142 29.257143 0 14.628571-10.971429 29.257143-29.257142 29.257143H149.942857c-14.628571 0-29.257143-10.971429-29.257143-29.257143 3.657143-18.285714 14.628571-29.257143 29.257143-29.257143zM947.2 438.857143l-109.714286-65.828572c-10.971429-7.314286-21.942857-3.657143-32.914285 3.657143-7.314286 3.657143-10.971429 14.628571-10.971429 21.942857v263.314286c-18.285714-10.971429-36.571429-18.285714-62.171429-18.285714-62.171429 0-113.371429 51.2-113.371428 113.371428S669.257143 877.714286 731.428571 877.714286c62.171429 0 113.371429-51.2 113.371429-113.371429v-318.171428l73.142857 40.228571c14.628571 7.314286 29.257143 3.657143 36.571429-10.971429 10.971429-10.971429 7.314286-29.257143-7.314286-36.571428zM731.428571 822.857143c-32.914286 0-58.514286-25.6-58.514285-58.514286s25.6-58.514286 58.514285-58.514286 58.514286 25.6 58.514286 58.514286-25.6 58.514286-58.514286 58.514286z" p-id="27960" fill="#1afa29"></path></svg>