<?xml version="1.0" standalone="no"?><!DOCTYPE svg PUBLIC "-//W3C//DTD SVG 1.1//EN" "http://www.w3.org/Graphics/SVG/1.1/DTD/svg11.dtd"><svg t="1515568150234" class="icon" style="" viewBox="0 0 1024 1024" version="1.1" xmlns="http://www.w3.org/2000/svg" p-id="2381" xmlns:xlink="http://www.w3.org/1999/xlink" width="16" height="16"><defs><style type="text/css"></style></defs><path d="M784 624l0 176L256 800 256 624c0-8.848-7.152-16-16-16l0 0c-8.848 0-16 7.152-16 16l0 176 0 16c0 4.096 1.568 8.192 4.688 11.312S235.904 832 240 832l16 0 528 0 16 0c4.096 0 8.192-1.568 11.312-4.688S816 820.096 816 816l0-16L816 624c0-8.848-7.152-16-16-16l0 0C791.152 608 784 615.152 784 624z" p-id="2382" fill="#cdcdcd"></path><path d="M659.072 502.304c6.256 6.256 6.256 16.368 0 22.624l-124.448 124.448L512 672l-22.624-22.624-124.448-124.448c-6.256-6.256-6.256-16.368 0-22.624l0 0c6.256-6.256 16.368-6.256 22.624 0L496 610.752 496 176c0-8.848 7.152-16 16-16l0 0c8.848 0 16 7.152 16 16l0 434.752 108.448-108.448C642.704 496.048 652.832 496.048 659.072 502.304L659.072 502.304z" p-id="2383" fill="#cdcdcd"></path></svg>