<?xml version="1.0" standalone="no"?><!DOCTYPE svg PUBLIC "-//W3C//DTD SVG 1.1//EN" "http://www.w3.org/Graphics/SVG/1.1/DTD/svg11.dtd"><svg t="1515565128621" class="icon" style="" viewBox="0 0 1024 1024" version="1.1" xmlns="http://www.w3.org/2000/svg" p-id="1612" xmlns:xlink="http://www.w3.org/1999/xlink" width="16" height="16"><defs><style type="text/css"></style></defs><path d="M894.77233778 305.08032c-55.27096889-55.27096889-128.75662222-85.70993778-206.91968-85.70993778H380.74481778v-58.74574222c0-18.76195555-12.89557333-25.78432-28.65607112-15.60576L210.70506666 236.33123555c-15.76049778 10.17742222-15.60689778 26.59100445 0.34247112 36.47146667l140.69987555 87.16515556c15.94936889 9.88046222 28.99740445 2.61461333 28.99740445-16.14734223v-58.45788444h307.10670222C812.82048 285.36263111 914.48888888 387.03217778 914.48888888 512c0 20.66318222-2.77390222 41.12611555-8.24433777 60.81877333-4.87765333 17.55818667 5.40103111 35.74556445 22.95921777 40.62321778a33.00238222 33.00238222 0 0 0 8.85077334 1.21287111c14.45091555 0 27.71512889-9.56871111 31.77244444-24.17208889C976.896 565.03864889 980.48 538.63310222 980.48 512c0.00113778-78.16419555-30.43783111-151.64984889-85.70766222-206.91968z m-54.48135112 446.11697778l-140.69987555-87.16515556c-15.94936889-9.88046222-28.99740445-2.61461333-28.99740445 16.14734223v58.45788444H338.99406222c-124.96782222 0-226.63736889-101.66840889-226.63736889-226.63736889 0-43.79079111 12.50190222-86.27541333 36.15288889-122.85952 9.89411555-15.30311111 5.50798222-35.72963555-9.79399111-45.62261333-15.30424889-9.89525333-35.72963555-5.50798222-45.62375111 9.79512888C62.52316444 400.59562667 46.36558222 455.46837333 46.36558222 512c0 78.16305778 30.43896889 151.64871111 85.7088 206.91968 55.27096889 55.26983111 128.75662222 85.7088 206.91968 85.7088h331.59850666v58.74574222c0 18.76195555 12.89557333 25.78432 28.65607112 15.60576l141.38481778-91.31121777c15.75936-10.17742222 15.60689778-26.59100445-0.34247112-36.47146667z" p-id="1613" fill="#8a8a8a"></path></svg>