<?xml version="1.0" standalone="no"?><!DOCTYPE svg PUBLIC "-//W3C//DTD SVG 1.1//EN" "http://www.w3.org/Graphics/SVG/1.1/DTD/svg11.dtd"><svg t="1515474044401" class="icon" style="" viewBox="0 0 1024 1024" version="1.1" xmlns="http://www.w3.org/2000/svg" p-id="26540" xmlns:xlink="http://www.w3.org/1999/xlink" width="32" height="32"><defs><style type="text/css"></style></defs><path d="M512 0C229.216 0 0 229.216 0 512c0 282.752 229.216 512 512 512s512-229.248 512-512c0-282.784-229.216-512-512-512z m0 984.608c-261.024 0-472.64-211.584-472.64-472.64C39.36 250.976 251.008 39.392 512 39.392c260.992 0 472.64 211.584 472.64 472.576 0 261.056-211.648 472.64-472.64 472.64zM273.28 521.696c15.2-0.512 30.496-0.128 45.728-0.128v0.096c13.696 0 27.456 0.704 41.12-0.288 6.88-0.48 18.496 5.408 18.816-8.992 0.256-10.528-2.56-21.184-14.432-22.624a372.288 372.288 0 0 0-95.456 0.32c-7.68 1.024-16.48 7.328-13.76 17.664 2.112 8.096 7.552 14.304 17.984 13.952z m7.136-65.184c24.32-0.096 48.928-2.016 72.992 0.576 29.6 3.2 51.232-6.784 70.656-34.784-50.368 0-97.28 0.224-144.16-0.16-12.704-0.096-24.736 1.92-24.192 16.512 0.48 13.184 11.84 17.888 24.704 17.856z m150.24 136.064c6.944-0.064 17.12-1.12 7.968-10.72-10.976-11.424-20.8-24.768-41.024-23.968-38.72 1.536-77.536 0.832-116.352 0.192-13.792-0.224-26.432 2.912-25.92 17.6 0.512 14.144 13.44 17.6 27.04 17.28 23.552-0.544 47.136-0.16 70.72-0.16v-0.16c25.856 0 51.712 0.128 77.568-0.064z m149.44 83.488c-17.792 13.12-42.816 5.696-63.2 17.312a43.2 43.2 0 0 0-14.848 13.184c-17.664 26.848-33.92 54.592-51.52 81.504-10.368 15.872-6.4 29.824 6.72 39.584 13.952 10.368 30.944 10.208 42.144-4.928 31.616-42.592 62.208-85.952 92.896-129.216 8.512-12 1.024-15.872-12.16-17.44z m186.72-229.664c-11.392-26.048-33.28-13.728-51.616-14.784-17.28-0.96-35.008 18.656-49.6 5.696-12.672-11.2-20.064-29.824-25.824-46.528-7.456-21.568-24.768-36.768-38.528-59.232 48.8 18.816 78.144 1.28 92.416-21.856 16.384-26.624 11.872-61.568-10.368-82.112-22.528-20.768-56.448-23.872-81.408-7.456-31.968 20.96-36.48 47.808-14.88 101.024-34.688-10.88-63.424-27.36-93.952-39.424-12.16-4.8-23.744-16.8-37.92-11.008-37.44 15.328-74.752 31.168-111.168 48.768-22.464 10.88-27.264 26.336-17.792 43.616 7.68 14.08 27.168 18.624 46.4 10.24 16.416-7.168 32.992-14.208 48.768-22.72 26.432-14.24 50.368-14.464 76.16 3.52 16.8 11.68 14.4 18.816 1.984 30.592-28.096 26.688-58.112 51.584-81.568 82.752-17.216 22.912-16.416 46.56 4.224 66.304 25.44 24.32 52.064 47.424 77.856 71.36 8 7.36 15.008 14.816-3.776 18.304-25.184 4.704-49.92 11.456-75.04 16.608-18.336 3.712-33.376 20.8-30.208 35.744 3.68 17.664 25.568 28.992 44.384 24.544 49.664-11.744 99.36-23.36 149.344-33.792 25.6-5.344 37.6-30.88 22.176-51.52-14.336-19.136-29.76-37.44-43.616-56.928-32.48-45.664-32.224-45.856 8.736-85.824 23.04-22.464 22.816-22.336 40.32 6.88 7.616 12.704 14.112 28.16 32.896 26.656 37.024-2.944 72.864-12.448 108.544-21.984 13.504-3.616 18.88-24.128 13.056-37.44z" fill="#ffffff" p-id="26541"></path></svg>