<?xml version="1.0" standalone="no"?><!DOCTYPE svg PUBLIC "-//W3C//DTD SVG 1.1//EN" "http://www.w3.org/Graphics/SVG/1.1/DTD/svg11.dtd"><svg t="1515544762907" class="icon" style="" viewBox="0 0 1026 1024" version="1.1" xmlns="http://www.w3.org/2000/svg" p-id="813" xmlns:xlink="http://www.w3.org/1999/xlink" width="32.0625" height="32"><defs><style type="text/css"></style></defs><path d="M514.27007 1024c-281.871217 0-511.187972-229.323972-511.187972-511.187972C3.082098 230.940811 232.398852 1.624056 514.27007 1.624056s511.187972 229.323972 511.187972 511.187972-229.316754 511.187972-511.187972 511.187972z m0-935.759606c-234.109525 0-424.571634 190.462109-424.571634 424.571634s190.462109 424.571634 424.571634 424.571634c234.116743 0 424.571634-190.462109 424.571634-424.571634s-190.462109-424.571634-424.571634-424.571634z" fill="#1afa29" p-id="814"></path><path d="M514.262852 672.36654c-87.980545 0-159.554512-71.573967-159.554512-159.554512s71.573967-159.554512 159.554512-159.554512 159.554512 71.573967 159.554512 159.554512-71.573967 159.554512-159.554512 159.554512z m0-232.492686c-40.218853 0-72.938174 32.719322-72.938175 72.938174s32.719322 72.938174 72.938175 72.938175 72.938174-32.719322 72.938174-72.938175-32.719322-72.938174-72.938174-72.938174z" fill="#1afa29" p-id="815"></path></svg>