<?xml version="1.0" standalone="no"?><!DOCTYPE svg PUBLIC "-//W3C//DTD SVG 1.1//EN" "http://www.w3.org/Graphics/SVG/1.1/DTD/svg11.dtd"><svg t="1515402958398" class="icon" style="" viewBox="0 0 1024 1024" version="1.1" xmlns="http://www.w3.org/2000/svg" p-id="3117" xmlns:xlink="http://www.w3.org/1999/xlink" width="32" height="32"><defs><style type="text/css"></style></defs><path d="M159.418826 766.512624 159.418826 615.548354 65.311495 615.548354l0 245.071601c0 51.974745 42.133609 94.107331 94.107331 94.107331L413.552827 954.727287l0-94.107331L253.526157 860.619956C201.553459 860.619956 159.418826 818.48737 159.418826 766.512624z" p-id="3118" fill="#1afa29"></path><path d="M162.730245 252.231675c0-51.974745 42.133609-94.107331 94.107331-94.107331l160.02667 0L416.864246 64.018036 162.730245 64.018036c-51.973722 0-94.107331 42.132586-94.107331 94.107331l0 247.032256 94.107331 0L162.730245 252.231675z" p-id="3119" fill="#1afa29"></path><path d="M863.875093 769.824043c0 51.973722-42.132586 94.107331-94.107331 94.107331l-153.905252 0 0 94.107331 248.012583 0c51.974745 0 94.107331-42.133609 94.107331-94.107331l0-245.071601-94.107331 0L863.875093 769.824043z" p-id="3120" fill="#1afa29"></path><path d="M866.207208 66.349127 618.193601 66.349127l0 94.106308 153.905252 0c51.973722 0 94.107331 42.133609 94.107331 94.107331l0 152.925948 94.107331 0L960.313515 160.456459C960.314539 108.482737 918.179906 66.349127 866.207208 66.349127z" p-id="3121" fill="#1afa29"></path><path d="M913.729547 463.975217 110.544699 463.975217c-25.726941 0-46.582945 20.856004-46.582945 46.582945l0 0.940418c0 25.727964 20.856004 46.583968 46.582945 46.583968l803.184849 0c25.727964 0 46.583968-20.856004 46.583968-46.583968l0-0.940418C960.314539 484.83122 939.458535 463.975217 913.729547 463.975217z" p-id="3122" fill="#1afa29"></path></svg>