<?xml version="1.0" standalone="no"?><!DOCTYPE svg PUBLIC "-//W3C//DTD SVG 1.1//EN" "http://www.w3.org/Graphics/SVG/1.1/DTD/svg11.dtd"><svg t="1515419239738" class="icon" style="" viewBox="0 0 1024 1024" version="1.1" xmlns="http://www.w3.org/2000/svg" p-id="580" xmlns:xlink="http://www.w3.org/1999/xlink" width="32" height="32"><defs><style type="text/css"></style></defs><path d="M511.488 64c-247.296 0-447.488 200.192-447.488 447.488 0 247.296 200.192 447.488 447.488 447.488 247.296 0 447.488-200.192 447.488-447.488 0.512-246.784-200.192-447.488-447.488-447.488z m0 839.68c-216.576 0-391.68-175.616-391.68-391.68 0-216.576 175.616-391.68 391.68-391.68s391.68 175.616 391.68 391.68c0.512 216.064-175.104 391.68-391.68 391.68z" p-id="581" fill="#1afa29"></path><path d="M762.368 511.488h-236.544v-236.544c0-8.192-10.24-15.36-22.528-15.36h-11.264c-12.288 0-22.528 6.656-22.528 15.36v277.504c0 4.096 2.048 7.68 5.632 10.24 2.56 3.072 6.144 5.12 9.728 5.12H762.368c8.192 0 15.36-10.24 15.36-22.528v-11.264c-0.512-12.288-7.168-22.528-15.36-22.528z" p-id="582" fill="#1afa29"></path></svg>