<?xml version="1.0" standalone="no"?><!DOCTYPE svg PUBLIC "-//W3C//DTD SVG 1.1//EN" "http://www.w3.org/Graphics/SVG/1.1/DTD/svg11.dtd"><svg t="1515464146485" class="icon" style="" viewBox="0 0 1024 1024" version="1.1" xmlns="http://www.w3.org/2000/svg" p-id="3344" xmlns:xlink="http://www.w3.org/1999/xlink" width="32" height="32"><defs><style type="text/css"></style></defs><path d="M512 512m-499.712 0a499.712 499.712 0 1 0 999.424 0 499.712 499.712 0 1 0-999.424 0Z" fill="#2EF3FF" p-id="3345"></path><path d="M446.464 579.584c-145.408 63.488-188.416 98.304-206.848 112.64-26.624 24.576-40.96 122.88-57.344 196.608 0 0 129.024 122.88 329.728 122.88s329.728-122.88 329.728-122.88c-16.384-73.728-30.72-176.128-57.344-198.656-18.432-14.336-59.392-49.152-204.8-112.64l-133.12 2.048z m0 0" fill="#14A6F6" p-id="3346"></path><path d="M581.632 452.608V614.4c-38.912 47.104-102.4 45.056-141.312 0v-161.792c0-88.064 141.312-88.064 141.312 0z m0 0" fill="#FFDECC" p-id="3347"></path><path d="M581.632 452.608v108.544c-26.624 20.48-53.248 30.72-71.68 30.72-18.432 0-43.008-10.24-71.68-30.72v-108.544c2.048-88.064 143.36-88.064 143.36 0z m0 0" fill="#F7C5AA" p-id="3348"></path><path d="M434.176 579.584l-51.2 26.624 73.728 100.352 55.296-53.248-77.824-73.728z m0 0M589.824 579.584l51.2 26.624-73.728 100.352-55.296-53.248 77.824-73.728z m0 0" fill="#FFFFFF" p-id="3349"></path><path d="M512 174.08c-237.568 0-151.552 286.72-137.216 309.248 16.384 24.576 98.304 92.16 137.216 92.16 38.912 0 118.784-67.584 137.216-92.16 14.336-22.528 100.352-309.248-137.216-309.248z m0 0" fill="#FFDECC" p-id="3350"></path><path d="M329.728 362.496c12.288-4.096 28.672 10.24 34.816 30.72 6.144 22.528 2.048 43.008-10.24 47.104-12.288 4.096-26.624-10.24-34.816-30.72-6.144-22.528-2.048-43.008 10.24-47.104z m364.544 0c-12.288-4.096-28.672 10.24-34.816 30.72-6.144 22.528-2.048 43.008 10.24 47.104 12.288 4.096 28.672-10.24 34.816-32.768 6.144-20.48 2.048-40.96-10.24-45.056z m0 0" fill="#FFDECC" p-id="3351"></path><path d="M403.456 270.336c-14.336 75.776-49.152 67.584-45.056 155.648-10.24-69.632-26.624-159.744 18.432-221.184 36.864-49.152 161.792-81.92 241.664-24.576 88.064 18.432 61.44 198.656 49.152 233.472-8.192-55.296-26.624-77.824-51.2-143.36-30.72 24.576-172.032 28.672-212.992 0z m0 0" fill="#CC7B53" p-id="3352"></path></svg>