<?xml version="1.0" standalone="no"?><!DOCTYPE svg PUBLIC "-//W3C//DTD SVG 1.1//EN" "http://www.w3.org/Graphics/SVG/1.1/DTD/svg11.dtd"><svg t="1515570989663" class="icon" style="" viewBox="0 0 1024 1024" version="1.1" xmlns="http://www.w3.org/2000/svg" p-id="5732" xmlns:xlink="http://www.w3.org/1999/xlink" width="16" height="16"><defs><style type="text/css"></style></defs><path d="M884.12672 842.862592c11.539456 11.451392 11.614208 30.088192 0.162816 41.6256-11.43808 11.539456-30.088192 11.626496-41.601024 0.175104l-36.723712-36.412416L524.7744 569.306112 512 556.65664l-12.773376 12.649472L218.0352 848.251904l-36.723712 36.412416c-11.513856 11.451392-30.162944 11.364352-41.601024-0.175104-11.452416-11.538432-11.37664-30.175232 0.161792-41.6256l36.711424-36.400128 281.191424-278.944768L473.430016 512l-15.654912-15.511552L176.58368 217.542656l-36.711424-36.406272c-11.538432-11.451392-11.613184-30.081024-0.161792-41.62048 11.43808-11.538432 30.087168-11.625472 41.601024-0.181248l36.723712 36.412416 281.191424 278.946816L512 467.349504l12.7744-12.654592 281.191424-278.946816 36.723712-36.412416c11.512832-11.444224 30.162944-11.357184 41.601024 0.181248 11.451392 11.539456 11.375616 30.169088-0.162816 41.62048l-36.7104 36.406272L566.224896 496.488448 550.569984 512l15.654912 15.517696 281.192448 278.944768L884.12672 842.862592z" p-id="5733" fill="#707070"></path></svg>