<?xml version="1.0" standalone="no"?><!DOCTYPE svg PUBLIC "-//W3C//DTD SVG 1.1//EN" "http://www.w3.org/Graphics/SVG/1.1/DTD/svg11.dtd"><svg t="1515570789357" class="icon" style="" viewBox="0 0 1024 1024" version="1.1" xmlns="http://www.w3.org/2000/svg" p-id="4973" xmlns:xlink="http://www.w3.org/1999/xlink" width="16" height="16"><defs><style type="text/css"></style></defs><path d="M749.548254 631.619378 749.575884 631.453602 749.820454 631.030977 749.923808 631.346155Z" fill="#d81e06" p-id="4974"></path><path d="M724.868155 619.191324 724.892715 619.042945 725.111702 618.664322 725.2038 618.946754Z" fill="#d81e06" p-id="4975"></path><path d="M512.00307 870.653473 212.859969 572.374042c-3.678786-3.094478-101.157911-95.821369-101.157911-205.26192 0-133.720537 79.253018-213.765595 211.819267-213.765595 79.396281 0 154.186661 66.642816 188.481745 102.162798 34.294061-35.519981 108.86443-102.162798 188.402951-102.162798 132.710534 0 211.892945 79.973426 211.892945 213.765595 0 109.441575-97.552803 202.167442-101.729939 205.768457L512.00307 870.653473 512.00307 870.653473z" fill="#d81e06" p-id="4976"></path></svg>