<?xml version="1.0" standalone="no"?><!DOCTYPE svg PUBLIC "-//W3C//DTD SVG 1.1//EN" "http://www.w3.org/Graphics/SVG/1.1/DTD/svg11.dtd"><svg t="1515409149820" class="icon" style="" viewBox="0 0 1024 1024" version="1.1" xmlns="http://www.w3.org/2000/svg" p-id="6900" xmlns:xlink="http://www.w3.org/1999/xlink" width="32" height="32"><defs><style type="text/css"></style></defs><path d="M257.06496 225.09568C118.4768 223.72352 1.37216 333.84448 0 478.96576c1.72032 141.1072 112.96768 253.52192 254.89408 253.17376 141.68064-0.22528 252.47744-111.8208 253.7472-251.00288 1.14688-146.71872-116.75648-254.89408-251.57632-256.04096z m-21.56544 380.14976H109.6704v-234.9056s14.60224-1.24928 30.45376-1.24928c12.73856 0 27.0336 1.24928 27.0336 1.24928v184.54528l68.36224 3.11296s1.24928 13.04576 1.24928 24.84224a215.2448 215.2448 0 0 1-1.26976 22.40512z m118.70208 0s-13.98784 1.24928-32.93184 1.24928c-19.88608 0-34.18112-1.24928-34.18112-1.24928-30.45376-72.3968-51.58912-149.77024-65.86368-232.09984a444.49792 444.49792 0 0 1 55.93088-4.34176c10.24 60.88704 26.4192 123.35104 42.55744 177.11104h1.24928c15.85152-51.26144 33.87392-119.93088 42.88512-177.09056 14.90944 0 28.89728 0.9216 56.23808 3.42016a1154.37568 1154.37568 0 0 1-65.88416 233.00096z" fill="#1afa29" p-id="6901"></path><path d="M999.81312 252.19072H446.7712c-2.74432 0-5.8368-1.14688-8.23296 1.37216 1.024 3.31776 3.8912 5.03808 6.28736 7.20896a400.60928 400.60928 0 0 1 59.6992 73.5232c25.94816 40.93952 43.68384 84.84864 47.45216 133.67296 4.46464 59.92448-13.49632 113.43872-47.45216 162.14016-18.98496 27.11552-41.73824 50.76992-68.25984 75.12064H1002.9056c14.06976-0.34816 20.48-6.9632 20.48-21.03296V274.96448c-0.24576-16.01536-7.10656-22.77376-23.57248-22.77376zM784.19968 573.952h-118.72256v-53.59616l118.72256-141.12768h56.79104v144.15872h29.45024v50.56512h-29.45024v43.84768h-56.79104v-43.84768z m0-50.54464v-73.80992l-62.73024 73.80992h62.73024z" fill="#1afa29" p-id="6902"></path></svg>