<?xml version="1.0" standalone="no"?><!DOCTYPE svg PUBLIC "-//W3C//DTD SVG 1.1//EN" "http://www.w3.org/Graphics/SVG/1.1/DTD/svg11.dtd"><svg t="1515419392381" class="icon" style="" viewBox="0 0 1024 1024" version="1.1" xmlns="http://www.w3.org/2000/svg" p-id="2192" xmlns:xlink="http://www.w3.org/1999/xlink" width="32" height="32"><defs><style type="text/css"></style></defs><path d="M737.986941 727.084637C600.735997 854.878185 512.886183 884.792495 511.791246 885.414665c-83.021855-40.98853-159.350265-94.370321-226.320539-158.304446C142.272307 596.753289 63.97915 478.963583 63.97915 364.709399c-1.791809-123.089409 96.535637-224.304625 219.62607-226.096435 1.393743-0.024559 2.812045-0.024559 4.205788-0.024559 102.956883 0 190.905958 53.133128 223.981261 130.058125 33.025161-76.924997 120.874975-130.058125 223.806275-130.058125 123.089409-0.62217 223.38365 98.676393 224.00582 221.765803 0 1.443885 0 2.911306-0.024559 4.355191C959.478498 478.963583 879.692337 595.160002 737.986941 727.084637zM909.97913 375.23615c0-103.080703-83.569324-186.651051-186.67561-186.625468-88.845491 0-169.080883 62.192458-186.625468 149.295258l0 0c-29.117155 36.284391-49.773613 0-49.773613 0l0 0c-20.382213-101.040231-122.492822-165.94445-223.557612-145.562237-87.079264 17.570167-149.718907 94.071516-149.743466 182.892447 0 4.181229-0.274246 8.262174 0 12.443403l0 0c0 0-33.124422 140.287093 398.187885 447.189925C927.399895 556.138266 909.97913 387.679553 909.97913 387.679553l0 0C910.253376 383.498324 909.97913 379.417379 909.97913 375.23615z" p-id="2193" fill="#1afa29"></path></svg>