<?xml version="1.0" standalone="no"?><!DOCTYPE svg PUBLIC "-//W3C//DTD SVG 1.1//EN" "http://www.w3.org/Graphics/SVG/1.1/DTD/svg11.dtd"><svg t="1515419691861" class="icon" style="" viewBox="0 0 1024 1024" version="1.1" xmlns="http://www.w3.org/2000/svg" p-id="6146" xmlns:xlink="http://www.w3.org/1999/xlink" width="32" height="32"><defs><style type="text/css"></style></defs><path d="M797.729032 282.803406 567.373034 149.637766c-30.567118-17.670416-80.164624-17.678603-110.746069 0l-230.355998 133.165639c-30.567118 17.670416-55.373034 60.574489-55.373034 95.810945l0 266.770276c0 35.120822 24.79159 78.132342 55.373034 95.810945l230.355998 133.165639c30.567118 17.670416 80.164624 17.678603 110.746069 0l230.355998-133.165639c30.567118-17.670416 55.373034-60.574489 55.373034-95.810945L853.102067 378.615374C853.102067 343.493528 828.310477 300.482008 797.729032 282.803406zM831.782548 645.384626c0 27.611816-20.736235 63.487836-44.723508 77.354631l-230.355998 133.165639c-23.974993 13.859631-65.435184 13.857585-89.406084 0l-230.355998-133.165639c-23.959643-13.850422-44.723508-49.808306-44.723508-77.354631L192.217452 378.615374c0-27.611816 20.736235-63.487836 44.723508-77.354631l230.355998-133.165639c23.974993-13.859631 65.435184-13.857585 89.406084 0l230.355998 133.165639c23.95862 13.850422 44.723508 49.80933 44.723508 77.354631L831.782548 645.384626z" p-id="6147" fill="#1afa29"></path><path d="M605.439949 357.711316c-0.127913-1.119495-0.352017-2.228756-0.688684-3.294016-0.642635-2.036375-1.600448-3.63887-2.723012-4.758364-1.123588-1.119495-2.411928-1.757013-3.73506-1.813295-0.240476-0.010233-0.481976-0.002047-0.723476 0.026606-0.483 0.055258-0.967022 0.188288-1.445929 0.401135-0.239453 0.106424-0.47686 0.233313-0.711196 0.380669-0.23536 0.147356-0.46765 0.315178-0.69687 0.503466l-49.028549 40.307951c-0.017396 0.014326-0.031722 0.030699-0.049119 0.045025-1.499141 1.255594-2.625798 3.215222-3.300156 5.502306-0.194428 0.661054-0.352017 1.348715-0.469697 2.054795-0.058328 0.35304-0.107447 0.710173-0.146332 1.071399-0.233313 2.164288-0.10233 4.446257 0.443091 6.597242-0.019443 0.061398-0.032746 0.124843-0.051165 0.187265-0.323364 1.096982-0.502442 2.262525-0.502442 3.475141l0 135.598033c-13.052244-11.268625-30.007371-18.083831-48.559875-18.083831-41.187992 0-74.616269 33.555166-74.616269 75.123828l0 0c0 1.298573 0.032746 2.589983 0.097214 3.873206s0.160659 2.556214 0.288572 3.821018c0.764408 7.5878 2.648311 14.836887 5.480817 21.580461 2.360763 5.619986 5.381557 10.887956 8.963121 15.706695 1.432626 1.927905 2.955302 3.783155 4.56189 5.561658 13.652924 15.111132 33.343343 24.580789 55.224655 24.580789 5.151313 0 10.180853-0.523932 15.038478-1.522677 3.642963-0.749059 7.189735-1.7652 10.617804-3.026934s6.739481-2.769061 9.910701-4.501515c5.286389-2.886741 10.186993-6.398721 14.603574-10.436679 1.767246-1.615797 3.455698-3.315505 5.062286-5.092985 1.15531-1.27913 2.250246-2.611472 3.316529-3.968374 1.157357-1.473558 2.276852-2.977815 3.323692-4.537331 2.010793-2.997258 3.812831-6.148011 5.384626-9.433841 0.900508-1.881856 1.708918-3.815901 2.453883-5.781668 2.290155-6.040564 3.845577-12.449518 4.517888-19.127601 0.12689-1.264804 0.224104-2.538818 0.288572-3.821018s0.097214-2.57361 0.097214-3.873206l0 0c0-6.478539-0.812503-12.762649-2.33825-18.755119 0.189311-0.00307 0.227174-0.682544 0.227174-2.070144l-2.626822-171.812767c0-1.483791-0.271176-2.895951-0.745989-4.197594-0.118703-0.325411-0.240476-0.647752-0.384762-0.957813l19.200256-15.78549 20.492689-16.84768C604.501579 368.133669 606.021186 362.812488 605.439949 357.711316zM545.733221 609.247664c-0.539281 3.569285-1.424439 7.02089-2.619659 10.320022-0.896414 2.474349-1.967814 4.862741-3.198849 7.149826s-2.620682 4.473886-4.155638 6.545053c-8.184387 11.043498-20.477339 18.788888-34.591774 20.959316-2.646265 0.407275-5.356997 0.618076-8.116849 0.618076-6.43556 0-12.606084-1.149171-18.319191-3.257177-4.080937-1.50528-7.928561-3.4997-11.473286-5.913675-0.70915-0.483-1.40602-0.982372-2.089587-1.498117-6.840788-5.157453-12.412679-11.93582-16.156949-19.778423-0.374529-0.783851-0.730639-1.578958-1.067306-2.384299-2.698453-6.440676-4.190431-13.527058-4.190431-20.973642 0-2.957349 0.24457-5.854323 0.69687-8.679666 0.227174-1.4183 0.510629-2.817156 0.845249-4.195547 1.172707-4.833066 2.992141-9.404165 5.359044-13.621202 2.385322-4.251829 5.316065-8.149594 8.714458-11.57664 9.646688-9.727529 22.971132-15.732278 37.681129-15.732278 14.718184 0 28.041604 6.001679 37.686245 15.728185 1.338482 1.350761 2.599193 2.779294 3.789295 4.267178 2.298341 2.870368 4.304017 5.987353 5.985306 9.303881 0.409322 0.80841 0.799201 1.6291 1.169637 2.461046 2.989071 6.724132 4.666267 14.178902 4.666267 22.045041C546.347204 603.828245 546.137427 606.5707 545.733221 609.247664z" p-id="6148" fill="#1afa29"></path></svg>