<?xml version="1.0" standalone="no"?><!DOCTYPE svg PUBLIC "-//W3C//DTD SVG 1.1//EN" "http://www.w3.org/Graphics/SVG/1.1/DTD/svg11.dtd"><svg t="1515485357515" class="icon" style="" viewBox="0 0 1024 1024" version="1.1" xmlns="http://www.w3.org/2000/svg" p-id="16479" xmlns:xlink="http://www.w3.org/1999/xlink" width="32" height="32"><defs><style type="text/css"></style></defs><path d="M514.427 78.977c-239.935 0-434.48 194.545-434.48 434.48s194.545 434.48 434.48 434.48 434.48-194.545 434.48-434.48-194.545-434.48-434.48-434.48zM356.413 289.663c-56.676 35.195-90.537 95.756-90.537 162.019 0 16.506-13.349 30.705-29.977 30.705-16.506 0-29.977-12.743-29.977-29.249 0-88.595 44.419-168.209 118.815-214.448 14.078-8.738 32.526-4.369 41.264 9.709 8.738 14.078 4.369 32.526-9.588 41.264zM390.637 233.836c-5.461-15.655 2.791-32.768 18.447-38.229 20.025-7.039 40.414-11.651 60.438-13.836 0.85-0.122 2.548-0.122 3.398-0.242 16.506-1.334 30.341 10.923 31.797 27.307 1.456 16.506-11.408 31.069-27.914 32.526-0.364 0-1.092 0.122-1.699 0.122-15.292 1.699-30.705 5.34-46.117 10.681-3.277 1.092-6.675 1.699-9.952 1.699-12.5 0-24.030-7.646-28.399-20.025zM514.427 627.173c-62.745 0-113.717-50.851-113.717-113.717 0-62.745 50.851-113.717 113.717-113.717s113.717 50.851 113.717 113.717c-0.122 62.866-50.973 113.717-113.717 113.717z" fill="#1afa29" p-id="16480"></path></svg>