<?xml version="1.0" standalone="no"?><!DOCTYPE svg PUBLIC "-//W3C//DTD SVG 1.1//EN" "http://www.w3.org/Graphics/SVG/1.1/DTD/svg11.dtd"><svg t="1515484668103" class="icon" style="" viewBox="0 0 1024 1024" version="1.1" xmlns="http://www.w3.org/2000/svg" p-id="4440" xmlns:xlink="http://www.w3.org/1999/xlink" width="32" height="32"><defs><style type="text/css"></style></defs><path d="M930.816 1023.488h-289.792c-51.712 0-93.184-65.536-93.184-117.248v-264.704c0-51.712 41.984-93.184 93.184-93.184h289.792c51.2 0 93.184 41.984 93.184 93.184v288.768c0 51.712-41.984 93.184-93.184 93.184zM930.816 476.16h-289.792c-51.712 0-93.184-65.536-93.184-117.248v-265.216c0-51.712 41.984-93.184 93.184-93.184h289.792c51.2 0 93.184 41.984 93.184 93.696v288.768c0 51.2-41.984 93.184-93.184 93.184zM382.976 1023.488h-289.792c-51.712 0-93.184-65.536-93.184-117.248v-264.704c0-51.712 41.984-93.184 93.184-93.184h289.792c51.712 0 93.184 41.984 93.184 93.184v288.768c0.512 51.712-41.472 93.184-93.184 93.184zM382.976 476.16h-289.792c-51.712 0-93.184-65.536-93.184-117.248v-265.216c0-51.712 41.984-93.184 93.184-93.184h289.792c51.712 0 93.184 41.984 93.184 93.184v288.768c0.512 51.712-41.472 93.696-93.184 93.696z" fill="#1afa29" p-id="4441"></path></svg>