<?xml version="1.0" standalone="no"?><!DOCTYPE svg PUBLIC "-//W3C//DTD SVG 1.1//EN" "http://www.w3.org/Graphics/SVG/1.1/DTD/svg11.dtd"><svg t="1515481282585" class="icon" style="" viewBox="0 0 1024 1024" version="1.1" xmlns="http://www.w3.org/2000/svg" p-id="4087" xmlns:xlink="http://www.w3.org/1999/xlink" width="32" height="32"><defs><style type="text/css"></style></defs><path d="M281.37 454.921H142.992c-25.475 0-46.126 20.649-46.126 46.126v412.827c0 25.477 20.651 46.126 46.126 46.126H281.37c25.475 0 46.126-20.649 46.126-46.126V501.047c0-25.477-20.651-46.126-46.126-46.126zM581.189 64H442.811c-25.475 0-46.126 20.651-46.126 46.126v803.748c0 25.477 20.651 46.126 46.126 46.126h138.378c25.475 0 46.126-20.649 46.126-46.126V110.126c0-25.475-20.651-46.126-46.126-46.126z m299.819 204.109H742.63c-25.475 0-46.126 20.654-46.126 46.126v599.639c0 25.477 20.651 46.126 46.126 46.126h138.378c25.475 0 46.126-20.649 46.126-46.126V314.235c0-25.472-20.651-46.126-46.126-46.126z" fill="#1afa29" p-id="4088"></path></svg>