<?xml version="1.0" standalone="no"?><!DOCTYPE svg PUBLIC "-//W3C//DTD SVG 1.1//EN" "http://www.w3.org/Graphics/SVG/1.1/DTD/svg11.dtd"><svg t="1515562439167" class="icon" style="" viewBox="0 0 1024 1024" version="1.1" xmlns="http://www.w3.org/2000/svg" p-id="4578" xmlns:xlink="http://www.w3.org/1999/xlink" width="16" height="16"><defs><style type="text/css"></style></defs><path d="M512 893.155556c-5.688889 0-11.377778-2.844444-17.066667-8.533334l-73.955555-99.555555c-5.688889-8.533333-5.688889-22.755556 2.844444-28.444445 8.533333-5.688889 22.755556-5.688889 28.444445 2.844445l59.733333 76.8 65.422222-79.644445c2.844444-5.688889 8.533333-8.533333 17.066667-8.533333h332.8V173.511111H99.555556v580.266667h335.644444c11.377778 0 19.911111 8.533333 19.911111 19.911111s-8.533333 19.911111-19.911111 19.911111H76.8c-11.377778 0-19.911111-8.533333-19.911111-19.911111V150.755556c0-11.377778 8.533333-19.911111 19.911111-19.911112h867.555556c11.377778 0 19.911111 8.533333 19.911111 19.911112v620.088888c0 11.377778-8.533333 19.911111-19.911111 19.911112h-341.333334L529.066667 881.777778c-5.688889 8.533333-11.377778 11.377778-17.066667 11.377778z" fill="#000000" p-id="4579"></path><path d="M463.644444 446.577778c0 28.444444 22.755556 48.355556 48.355556 48.355555 28.444444 0 48.355556-22.755556 48.355556-48.355555 0-28.444444-22.755556-48.355556-48.355556-48.355556-25.6 0-48.355556 22.755556-48.355556 48.355556zM267.377778 446.577778c0 28.444444 22.755556 48.355556 48.355555 48.355555 28.444444 0 48.355556-22.755556 48.355556-48.355555 0-28.444444-22.755556-48.355556-48.355556-48.355556-25.6 0-48.355556 22.755556-48.355555 48.355556zM659.911111 446.577778c0 28.444444 22.755556 48.355556 48.355556 48.355555 28.444444 0 48.355556-22.755556 48.355555-48.355555 0-28.444444-22.755556-48.355556-48.355555-48.355556-25.6 0-48.355556 22.755556-48.355556 48.355556z" fill="#000000" p-id="4580"></path></svg>