<?xml version="1.0" standalone="no"?><!DOCTYPE svg PUBLIC "-//W3C//DTD SVG 1.1//EN" "http://www.w3.org/Graphics/SVG/1.1/DTD/svg11.dtd"><svg t="1515564421646" class="icon" style="" viewBox="0 0 1024 1024" version="1.1" xmlns="http://www.w3.org/2000/svg" p-id="996" xmlns:xlink="http://www.w3.org/1999/xlink" width="32" height="32"><defs><style type="text/css"></style></defs><path d="M92.457762 206.780507h838.987262c15.462157 0 28.110221-12.010545 28.212552-26.799366 0-14.857383-12.579503-26.940582-28.063149-26.940582H92.457762c-15.516392 0-28.116361 12.037151-28.116361 26.822902 0 14.84715 12.600993 26.917046 28.116361 26.917046zM931.59545 488.485447H92.457762c-15.516392 0-28.116361 12.037151-28.116361 26.820855 0 14.846126 12.599969 26.916023 28.116361 26.916023h838.987262c15.462157 0 28.110221-12.010545 28.212552-26.796296 0-14.860453-12.579503-26.940582-28.062126-26.940582zM931.59545 811.249525H92.457762c-15.516392 0-28.116361 13.372565-28.116361 29.798676 0 16.497743 12.599969 29.910217 28.116361 29.910217h838.987262c15.462157 0 28.110221-13.345959 28.212552-29.77821 0-16.506952-12.579503-29.930683-28.062126-29.930683z" p-id="997" fill="#ffffff"></path></svg>