<?xml version="1.0" standalone="no"?><!DOCTYPE svg PUBLIC "-//W3C//DTD SVG 1.1//EN" "http://www.w3.org/Graphics/SVG/1.1/DTD/svg11.dtd"><svg t="1515584358491" class="icon" style="" viewBox="0 0 1025 1024" version="1.1" xmlns="http://www.w3.org/2000/svg" p-id="1021" xmlns:xlink="http://www.w3.org/1999/xlink" width="32.03125" height="32"><defs><style type="text/css"></style></defs><path d="M512 0C229.230035 0 0 229.230035 0 512s229.230035 512 512 512 512-229.230035 512-512S794.768713 0 512 0zM512 990.191963c-264.098603 0-478.193215-214.094612-478.193215-478.193215S247.901397 33.806785 512 33.806785s478.193215 214.094612 478.193215 478.193215S776.098603 990.191963 512 990.191963zM182.978597 545.581406c0 382.290879 621.498924 393.529757 636.82091 0L182.978597 545.581406 182.978597 545.581406zM254.441132 337.162578c0 19.968541 6.543491 39.819384 17.784873 53.940603 11.24013 14.122471 27.039167 22.345033 42.938373 22.345033 15.895449 0 31.694487-8.221309 42.935869-22.345033 11.241382-14.121219 17.784873-33.972062 17.784873-53.940603 0-19.969793-6.543491-39.824393-17.784873-53.946864-11.241382-14.117463-27.040419-22.338772-42.935869-22.338772-15.899206 0-31.698243 8.221309-42.938373 22.338772C260.984623 297.339437 254.441132 317.192785 254.441132 337.162578L254.441132 337.162578zM632.57628 337.162578c0 19.968541 6.543491 39.819384 17.784873 53.940603 11.24013 14.122471 27.039167 22.345033 42.938373 22.345033 15.895449 0 31.694487-8.221309 42.935869-22.345033 11.241382-14.121219 17.784873-33.972062 17.784873-53.940603 0-19.969793-6.543491-39.824393-17.784873-53.946864-11.241382-14.117463-27.039167-22.338772-42.935869-22.338772-15.899206 0-31.698243 8.221309-42.938373 22.338772C639.119771 297.339437 632.57628 317.192785 632.57628 337.162578L632.57628 337.162578z" p-id="1022" fill="#bfbfbf"></path></svg>